<?xml version="1.0" encoding="utf-8"?>
<!-- Generator: Adobe Illustrator 21.1.0, SVG Export Plug-In . SVG Version: 6.00 Build 0)  -->
<svg version="1.1" id="Calque_1" xmlns="http://www.w3.org/2000/svg" xmlns:xlink="http://www.w3.org/1999/xlink" x="0px" y="0px"
	 viewBox="0 0 699.6 533" style="enable-background:new 0 0 699.6 533;" xml:space="preserve">
<style type="text/css">
	.st0{fill:#22387b;}
</style>
<path class="st0" d="M442.8,193.8c-14.7-28.7-36.2-45.5-66.3-53.3c-16.6-4.2-22.9-8.6-33.8-19.9c-11.8-12.3-15-11-29.6-5
	c-30.1,12.6-79.9,2.3-96.3-3.6s-34.5-7.7-29.1-20.6c2.4-5.6,16.6-5,21.4-12.3c-29-12.4-37.2-23.3-38.1-50.2
	c-0.3-8.5-0.4-13.9,5.3-19c6.3-5.6,30.1-9.7,38.5-6.2c9.3,3.9,14.3,13.2,23.8,17.5c5.3,2.4,11.5,1.8,16.9,4.5
	c3.2,1.7,5.3,7.4,8.6,9.4c23.3,13.5,54.9,6.5,77.4,19.7c11.5,6.8,13.1,18,21.3,27.2c6.6,7.4,15.7,9.6,23.6,15.4
	c4.1,3,16.9,21.7,20.6,21.7c10.4-0.3,2.8-21.7,10.4-29.6c9.8-10,7.8-0.4,17.8,1.6c12,2.6,18.3-5.3,29.9-5.3
	c21.3,0.1,29.3,24.2,37.7,39.6c11.1,20.4,33.9,15,53.9,22.9c13.2,5.1,26.1,8.8,39.6,12.9c14.4,4.4,17.9,8.2,26.6,22
	c3.4,5.3,4.4,13.5,10.4,16.9c7.7,4.4,15.6-2.3,22.9,0.1c17.2,5.7,7.6,47.3,25,61.4c13.5,10.9,15.4,9.9,15.4,30.2
	c0,11.4,0,24.2-3.5,35.1c-8.1,24.3-27.5,38.1-48.9,49c-20.2,10.4-43.2-1-62.7,10.2c-18.5,10.7-15.7,37.5-38.6,42.1
	c-10,2-17.5-6.4-27.5-1.1c-10.9,5.6-17.7,25.2-29.4,33c-24.8,16.6-55.9,17.4-84,23.6c-10.2,2.3-20.2,4.7-26.6,12.5
	c-8.9,10.7-2.6,11.5-18.6,16.3c-16.3,5-65.5,35.5-49.9-4.8c-10.5-2.9-18.8-7.4-29.9-8.5c-13.4-1.3-27.1,0.5-40.7-1
	c-13.2-1.4-26-5.4-39.2-6.5c-6.2-0.5-25.4,4.7-30.5,1.9c-11.1-6.2-2.5-4.5-2.9-16.6c-0.3-10.6-2.9-25.1-6.7-35.1
	c-9-23.9-22.6-25.1-42.7-34.9C96.6,398.5,83,393,71.2,377.1c-5.4-7.4-10.4-17.4-18.4-22.2c-8.4-5-18.3-6.1-26.9-11.7
	c-11.8-7.9-29-27.5-19.5-43.1c5.7-9.4,12-7.7,14.1-20.5c1.8-10.8,0.4-23.9,0.6-34.9c0.2-21.9-9-36.3,11.2-48.8
	c18.5-11.6,44.3-15.1,65.5-18.6c11-1.7,25.4-6.2,36.3-5.1c8.6,0.8,15.3,6.2,24.2,6.4c12.3,0.3,16.8-7.1,18.1-9.4
	c1.4-2.3,1.9-7.3,6.5-7.7c6-0.6,12-1.2,18-1.8c21.7-0.5,36.3,17.5,57.2,23c23.2,5.9,31-14.5,51.2-15c22.3-0.6,41.4,20.1,62.5,23.3
	c12.2,1.8,26-0.2,38.4,0.6C421,192.1,432.6,195.3,442.8,193.8z"/>
</svg>
