<?xml version="1.0" encoding="utf-8"?>
<!-- Generator: Adobe Illustrator 21.1.0, SVG Export Plug-In . SVG Version: 6.00 Build 0)  -->
<svg version="1.1" id="Calque_1" xmlns="http://www.w3.org/2000/svg" xmlns:xlink="http://www.w3.org/1999/xlink" x="0px" y="0px"
	 viewBox="0 0 695.1 566.1" style="enable-background:new 0 0 695.1 566.1;" xml:space="preserve">
<style type="text/css">
	.st0{fill:#22387b}
</style>
<path class="st0" d="M460,230.6c-17.4-34-43-54-78.7-63.2c-19.6-5-27.1-10.2-40-23.6c-14-14.6-17.7-13.1-35.1-5.9
	c-35.7,15-94.8,2.8-114.3-4.3c-19.4-7.1-41-9.2-34.5-24.4c2.8-6.7,19.6-6,25.5-14.6c-34.4-14.7-44.2-27.7-45.2-59.5
	c-0.4-10.1-0.5-16.5,6.3-22.5c7.5-6.7,35.7-11.5,45.7-7.3c11.2,4.7,17,15.7,28.3,20.7c6.2,2.9,13.6,2.2,20,5.4
	c3.9,2,6.2,8.9,10.2,11.1c27.7,16,65.1,7.7,91.8,23.4c13.6,8,15.5,21.3,25.2,32.3c7.9,8.9,18.6,11.4,27.9,18.3
	c4.9,3.6,20,25.8,24.4,25.8c12.3-0.4,3.3-25.8,12.3-35.1c11.6-11.9,9.3-0.5,21.1,1.9c14.3,3,21.7-6.3,35.5-6.2
	c25.2,0.1,34.8,28.6,44.7,47c13.2,24.2,40.3,17.8,63.9,27.2c15.6,6.1,31,10.4,47,15.3c17,5.2,21.3,9.7,31.6,26.1
	c4,6.2,5.3,16,12.3,20c9.2,5.2,18.4-2.8,27.1,0.1c20.3,6.8,9,56.2,29.6,72.8c16.1,12.9,18.3,11.7,18.3,35.8c0,13.5,0,28.6-4.2,41.6
	c-9.5,28.9-32.6,45.2-58,58.1c-24,12.3-51.2-1.2-74.3,12.1c-22,12.7-18.6,44.4-45.8,49.9c-11.9,2.4-20.7-7.5-32.6-1.3
	c-12.9,6.6-21,29.9-34.9,39.2c-29.4,19.6-66.3,20.6-99.6,27.9c-12.1,2.6-24,5.6-31.6,14.9c-10.6,12.7-3.1,13.7-22.1,19.4
	c-19.4,5.9-77.6,42.2-59.2-5.7c-12.4-3.5-22.3-8.7-35.5-10.1c-15.9-1.6-32.2,0.6-48.3-1.2c-15.6-1.7-30.9-6.5-46.5-7.7
	c-7.4-0.6-30.1,5.6-36.2,2.3c-13.2-7.3-2.9-5.4-3.4-19.6c-0.4-12.6-3.5-29.8-8-41.6c-10.7-28.4-26.9-29.7-50.7-41.4
	c-20.9-10.4-37.1-16.9-51.1-35.8c-6.5-8.7-12.3-20.6-21.8-26.4c-10-6-21.7-7.2-31.8-13.9c-14-9.3-34.4-32.7-23.1-51.1
	c6.8-11.1,14.2-9.1,16.8-24.3c2.1-12.8,0.5-28.4,0.7-41.4c0.2-26-10.7-43,13.3-58c22-13.8,52.6-18,77.7-22c13-2,30.1-7.3,43.1-6.1
	c10.2,1,18.2,7.3,28.8,7.5c14.6,0.4,19.9-8.4,21.5-11.1c1.6-2.7,2.3-8.6,7.7-9.1c7.2-0.7,14.3-1.4,21.4-2.2
	c25.7-0.6,43.1,20.8,67.9,27.3c27.5,7.1,36.8-17.2,60.8-17.8c26.5-0.7,49.1,23.8,74.2,27.7c14.4,2.2,30.8-0.2,45.6,0.7
	C434.1,228.6,448,232.4,460,230.6z"/>
</svg>
