<?xml version="1.0" encoding="utf-8"?>
<!-- Generator: Adobe Illustrator 21.1.0, SVG Export Plug-In . SVG Version: 6.00 Build 0)  -->
<svg version="1.1" id="Calque_1" xmlns="http://www.w3.org/2000/svg" xmlns:xlink="http://www.w3.org/1999/xlink" x="0px" y="0px"
	 viewBox="0 0 1192.8 769.9" style="enable-background:new 0 0 1192.8 769.9;" preserveAspectRatio="none" xml:space="preserve">
<style type="text/css">
	.st0{clip-path:url(#SVGID_2_);}
	.st1{fill:#263A7B;}
	.st2{fill:#242F66;}
	.st3{fill:#244087;}
</style>
<g>
	<defs>
		<path id="SVGID_1_" d="M1949.3-741.1h-0.5v0.5v3453v0.5h0.5h1759h0.5v-0.5v-3453v-0.5h-0.5H2535.4H1949.3z M1949.3-740.1h586.1
			h1172.9l-0.5-0.5v3453l0.5-0.5h-1759l0.5,0.5v-3453L1949.3-740.1z M1928.8-761.1h1800v3494h-1800V-761.1z"/>
	</defs>
	<clipPath id="SVGID_2_">
		<use xlink:href="#SVGID_1_"  style="overflow:visible;"/>
	</clipPath>
	<g class="st0">
		<defs>
			<polygon id="SVGID_3_" points="1949.3,-740.6 2535.4,-740.6 3708.3,-740.6 3708.3,2712.4 1949.3,2712.4 			"/>
		</defs>
		<clipPath id="SVGID_4_">
			<use xlink:href="#SVGID_3_"  style="overflow:visible;"/>
		</clipPath>
	</g>
</g>
<rect x="-0.8" y="-0.4" class="st1" width="1193.5" height="771.5"/>
<rect x="194.1" y="151.9" class="st2" width="806.4" height="468.1"/>
<polygon class="st3" points="1192.2,769.8 1000.5,618.9 194.1,618.9 -0.3,770.8 "/>
<polygon class="st3" points="-0.2,0 194.1,151.9 1000.5,151.9 1191.8,0 "/>
</svg>
