<?xml version="1.0" encoding="utf-8"?>
<!-- Generator: Adobe Illustrator 21.1.0, SVG Export Plug-In . SVG Version: 6.00 Build 0)  -->
<svg version="1.1" id="Calque_1" xmlns="http://www.w3.org/2000/svg" xmlns:xlink="http://www.w3.org/1999/xlink" x="0px" y="0px"
	 viewBox="0 0 97.5 89.5" style="enable-background:new 0 0 97.5 89.5;" xml:space="preserve">
<style type="text/css">
	.st0{clip-path:url(#SVGID_2_);}
	.st1{clip-path:url(#SVGID_4_);fill:#4787C7;}
</style>
<g>
	<defs>
		<path id="SVGID_1_" d="M59.8,45.6c2.1,0,1.5,20.7,3.7,20.7c2.2,0,1.3-11.6,4.1-11.6c2.8,0,2.1,20.3,4.6,20.3s2.7-25,5.3-25
			c2.6,0,1.9,10.8,4.3,10.8c2.4,0,2.1-15.3,6.1-15.4h1c2.4-0.1,3.8-0.1,3.8-0.1c0.2,0,0.3-0.1,0.3-0.1c0-0.1-0.1-0.2-0.3-0.2
			c0,0-1.4-0.1-3.8-0.1H88c-4,0-3.8-15.5-6.1-15.5c-2.4,0-1.7,10.8-4.3,10.8s-2.7-25-5.3-25c-2.5,0-1.8,20.3-4.6,20.3
			c-2.8,0-1.9-11.6-4.1-11.6c-2.2,0-1.7,20.7-3.7,20.7c-3.4,0-3.2-12.8-5.1-12.8c-2,0-1.4,12.6-3.5,12.7h-5.1c-3.6,0-3.9-20-5.9-20
			s-1.9,8.2-4,8.2c-2.1,0-2-19.5-4.2-19.5s-1.3,9.5-4.1,9.5S25.9,3.5,23.3,3.5C20.8,3.5,20.6,37,18,37s-1.4-16.2-3.8-16.2
			s-2.1,23.9-6.1,24H7.2c-2.4,0.1-3.8,0.1-3.8,0.1C3.2,44.9,3,45,3,45.1c0,0.1,0.1,0.2,0.3,0.2c0,0,1.4,0.1,3.8,0.1h1
			c4,0.1,3.7,24,6.1,24s1.2-16.2,3.8-16.2s2.7,33.5,5.3,33.5c2.5,0,1.8-19.3,4.6-19.3s1.9,9.5,4.1,9.5s2.1-19.5,4.2-19.5
			c2.1,0,2,8.2,4,8.2s2.3-20,5.9-20h5.1c2.1,0.2,1.5,12.7,3.5,12.7C56.7,58.4,56.5,45.6,59.8,45.6"/>
	</defs>
	<clipPath id="SVGID_2_">
		<use xlink:href="#SVGID_1_"  style="overflow:visible;"/>
	</clipPath>
	<g class="st0">
		<defs>
			<rect id="SVGID_3_" x="-773" y="-327.5" width="1694" height="1121"/>
		</defs>
		<clipPath id="SVGID_4_">
			<use xlink:href="#SVGID_3_"  style="overflow:visible;"/>
		</clipPath>
		<rect x="-2" y="-1.5" class="st1" width="100" height="93.2"/>
	</g>
</g>
</svg>
