<?xml version="1.0" encoding="utf-8"?>
<!-- Generator: Adobe Illustrator 21.1.0, SVG Export Plug-In . SVG Version: 6.00 Build 0)  -->
<svg version="1.1" xmlns="http://www.w3.org/2000/svg" xmlns:xlink="http://www.w3.org/1999/xlink" x="0px" y="0px"
	 viewBox="0 0 95.3 42.2" style="enable-background:new 0 0 95.3 42.2;" xml:space="preserve">
<style type="text/css">
	.st0{display:none;}
	.st1{fill:none;stroke:#22387B;stroke-width:0.5;stroke-miterlimit:10;}
	.st2{fill:#FFFFFF;}
</style>
<g id="Calque_1" class="st0">
	
		<image style="display:inline;overflow:visible;opacity:0.44;" width="550" height="408" xlink:href="../../../../../Desktop/wave-geo.jpeg"  transform="matrix(0.24 0 0 0.24 -55 -21.6667)">
	</image>
</g>
<g id="Calque_2">
	<path class="st1" d="M62,20.2c1.6-0.8,5,0.5,6.5,0.4c2.5-0.2,4.9-3,5.3-3.4c2.3-2.3,4.4-3.9,3-6.1c-0.8-1.3-2.1-2.6-4.2-3.5
		c-2.3-1-4.6,0.4-8.2-0.7c-1.4-0.4-1.4-2.9-2.8-2.9c-1.4,0-0.9,2-1.5,2.2c-0.9,0.4-1.2-0.5-2.1-0.5c-0.9,0-1,1.3-2.3,1.1
		c-1.3-0.2-3.3-1.7-6.3-2.2c-5.4-0.9-10.4,3-13.4,2.5s-4.8-2.6-6.8-3c-1.8-0.4-2.9,0.4-4.7,0.3c-1.2-0.1-4-2.3-6-1.3s-0.8,4.6-3,7.3
		c-5.6,7-10.3,2.8-11.5,4.3c-1.3,1.7,4.7,2.9,7,4c1.9,0.9,1,3.5,1.5,4.7c0.5,1.1,2.4,2.9,3.2,3.5c0.8,0.6,1,3.8,2.2,4.3
		c3.3,1.5,7.4-1,9.6-0.2s4.3,0.9,5.5,1.6c1.2,0.6,2.3,0.4,2.9,0.7c0.6,0.3,5.5,4.7,6.8,4.3c1.3-0.4,1.6-2.7,2.6-3.2
		c0.7-0.4,2,0,2.9-0.3c2.9-1.1-3.1-9.4-1.1-10.2c1.3-0.5,5.2-1.8,7.1-1.8C59.2,22.3,60.6,21,62,20.2z"/>
	<path class="st2" d="M71.8,18.5"/>
</g>
</svg>
